<?xml version="1.0" standalone="no"?><!DOCTYPE svg PUBLIC "-//W3C//DTD SVG 1.1//EN" "http://www.w3.org/Graphics/SVG/1.1/DTD/svg11.dtd"><svg t="1664577480547" class="icon" viewBox="0 0 1024 1024" version="1.1" xmlns="http://www.w3.org/2000/svg" p-id="17380" xmlns:xlink="http://www.w3.org/1999/xlink" width="200" height="200"><path d="M404.1728 870.7584H146.56a78.2336 78.2336 0 0 1-78.2336-78.0544V214.784a78.208 78.208 0 0 1 78.2336-78.0288h257.6128a78.2336 78.2336 0 0 1 78.2592 78.0288v577.8944a78.2592 78.2592 0 0 1-78.2592 78.08zM146.56 155.9552c-32 0-59.0336 26.9568-59.0336 58.8288v577.8944a59.008 59.008 0 0 0 59.0336 58.8544h257.6128a59.008 59.008 0 0 0 59.0592-58.8544V214.784c0-31.8976-27.0592-58.8288-59.0592-58.8288H146.56z" fill="#008CFF" p-id="17381"></path><path d="M234.1888 175.3088h81.6128a9.5744 9.5744 0 0 1 0 19.2H234.1888a9.6256 9.6256 0 0 1 0-19.2zM421.7856 771.4048H128.1792a9.6 9.6 0 0 1-9.6-9.6V220.16c0-5.2992 4.3008-9.6 9.6-9.6h293.5808c5.2992 0 9.6 4.3008 9.6 9.6v541.6448a9.5744 9.5744 0 0 1-9.5744 9.6z m-284.0064-19.2H412.16V229.76H137.7792v522.4448zM275.0208 844.0832c-18.4832 0-34.0992-15.4624-34.0992-33.7152 0-18.304 15.616-33.792 34.0992-33.792 18.9184 0 33.7408 14.848 33.7408 33.792a33.3568 33.3568 0 0 1-33.7408 33.7152z m0-48.3328a15.1296 15.1296 0 0 0-14.8992 14.592 15.104 15.104 0 0 0 14.8992 14.5152 14.208 14.208 0 0 0 14.5408-14.5152 14.2336 14.2336 0 0 0-14.5408-14.592z" fill="#008CFF" p-id="17382"></path><path d="M200.6784 571.264c7.4752-6.144 16.256-9.856 25.0624-13.5168 5.4272-2.2528 10.7264-4.8128 16.0256-7.3728a5.6832 5.6832 0 0 0 3.5584-5.7088c-0.0768-2.7136 0.1536-5.4016 0.1536-8.0896a3.072 3.072 0 0 0-0.5888-1.792 49.5104 49.5104 0 0 1-7.7568-16.0256 8.4992 8.4992 0 0 0-2.0736-3.4048c-6.1952-5.9648-8.9088-17.5616-5.6832-25.4976a6.272 6.272 0 0 0 0.128-4.3776 46.3104 46.3104 0 0 1-1.2032-20.7616c0.5632-3.1744 1.3824-6.3488 2.0992-9.6256-1.4848 0.1024-2.9184 0.128-4.352 0.2816-8.3968 0.896-16.1024 3.5328-22.3744 9.3184-9.472 8.7552-12.288 21.0176-7.7824 33.152 0.512 1.024 0.384 2.2528-0.3328 3.1488-2.432 3.4304-1.28 11.5968 1.8688 14.464a2.0736 2.0736 0 0 0 0.8704 0.6144c1.6384 0.2816 1.792 1.536 2.1248 2.8416 1.2032 4.992 3.0208 9.7024 6.3744 13.7216a2.9952 2.9952 0 0 1 0.64 1.7152c0 2.3808-0.1024 4.8128-0.1536 7.2192a7.6288 7.6288 0 0 1-3.84 6.4768 57.7024 57.7024 0 0 1-6.528 3.584c-5.4784 2.56-11.0848 4.8128-16.4608 7.5264-6.7584 3.4048-12.5952 7.936-15.6416 15.232-0.8448 2.0992-1.3824 4.3776-2.0736 6.5536v5.6832c1.3568 2.432 3.5328 3.072 6.1952 3.0208 5.4016-0.1024 10.8032-0.1024 16.1792 0 1.792 0.0512 2.688-0.512 3.3536-2.176 2.6112-6.3488 6.8096-11.9296 12.2112-16.2048zM386.5088 578.8416a25.1392 25.1392 0 0 0-7.5008-14.4896c-4.096-3.9168-9.216-6.272-14.2592-8.2688-5.0432-1.9968-10.2144-3.7888-15.104-6.1696a14.1056 14.1056 0 0 1-7.3728-16.64 2.4576 2.4576 0 0 1 0.5376-0.896c3.0976-3.3792 4.8128-7.4496 5.9648-11.7504 0.5888-2.0736 0.64-4.2752 3.1744-5.12 0.4096-0.128 0.7424-0.6912 0.9984-1.1264 2.5088-4.4288 3.7888-10.7776 0.384-14.7968 0.6144-1.4848 1.1776-3.0208 1.6384-4.5568 1.6896-6.6816 1.28-13.7216-1.152-20.1728-2.2528-6.1184-6.1184-11.2128-12.8-12.2368-4.352-0.64-6.2464-2.6368-7.3728-6.3488-0.1536-0.4864-0.8448-1.152-1.28-1.152-4.4032 0.256-8.8064 0.6144-13.2352 0.9472l0.0512 1.0496c3.072 10.0608 3.5584 20.1728 0.6144 30.336a3.328 3.328 0 0 0 0.128 1.8688 22.3488 22.3488 0 0 1 0.9472 11.5968c-1.1008 5.504-2.816 10.6752-6.8608 14.848a10.0864 10.0864 0 0 0-1.8688 3.0464c-1.8432 4.2496-3.1232 8.7808-5.504 12.7744a20.992 20.992 0 0 0-2.5088 8.9088c-0.7424 6.784 2.688 10.2656 8.3456 12.4928l0.9984 0.4352c8.3456 3.6352 16.8448 6.912 24.96 10.9824 10.4192 5.2224 18.8416 12.672 23.1424 23.936 0.4864 1.2288 1.2288 1.3568 2.3296 1.3568 5.76 0 11.52-0.0768 17.28 0 2.5088 0.0256 4.5568-0.64 5.76-3.0208h0.0256v-6.1696a9.4464 9.4464 0 0 1-0.4608-1.664z" fill="#1AC678" p-id="17383"></path><path d="M339.3024 574.9504c-7.0656-4.6336-14.976-7.3984-22.7072-10.5728-5.4528-2.2272-11.008-4.3264-15.5904-8.1664-3.0208-2.5344-5.4528-5.3504-5.376-9.728 0.1024-4.5824-0.2048-9.1904-0.2816-13.7728a2.2016 2.2016 0 0 1 0.4096-1.3824c5.1712-5.0944 7.168-11.6992 8.6272-18.5088 0.2816-1.3056 0.6656-2.0992 2.0224-2.6368a6.272 6.272 0 0 0 2.6112-2.4832 19.5072 19.5072 0 0 0 3.1744-12.2368c-0.1536-2.4576-0.9472-4.7104-3.072-6.144 0.6144-1.1008 1.152-2.2272 1.6384-3.3792a40.6016 40.6016 0 0 0-1.6384-30.208c-3.0464-6.9632-8.064-12.5952-15.6928-13.568-5.7088-0.7168-7.9616-3.456-9.3952-8.1152-0.3584-1.152-1.0496-1.4592-2.2528-1.4336-7.8336 0.3584-15.5136 1.5104-22.6816 4.864-10.6496 4.992-18.0224 12.8768-21.2224 24.3712-2.3808 8.7552-1.5872 17.28 1.5872 25.7024 0.256 0.6656 0.5632 1.792 0.2304 2.1504-2.8928 3.1744-3.1744 6.912-2.3808 10.8544 0.7936 3.9424 1.7664 7.6288 5.7344 9.5488 0.9984 0.384 1.6896 1.28 1.8176 2.3296 1.5104 7.04 3.6864 13.7728 9.1648 18.9184a2.048 2.048 0 0 1 0.4096 1.3824c-0.0512 4.3776-0.3328 8.7552-0.2304 13.1328 0.1024 4.9408-2.3808 8.4224-6.1952 10.8544a100.3776 100.3776 0 0 1-12.4672 6.656c-6.8608 3.0976-14.0288 5.6064-20.6592 8.9856-10.3936 5.2992-18.0736 13.1072-20.3264 25.1648a4.608 4.608 0 0 0 3.7888 5.4016c0.7936 0.1024 1.5872 0.128 2.3808 0.1024h150.3232c3.6096-0.256 4.8384-1.9712 4.1472-5.5552-1.92-9.9328-7.6544-17.1008-15.8976-22.528z" fill="#1AC678" p-id="17384"></path><path d="M757.5296 105.984h-78.9504c-12.5696 0-22.8096 10.24-22.8096 22.8096v51.8656c0 12.5696 10.2144 22.784 22.7584 22.8096l9.3952 0.2048v21.9392l32.2816-22.016 37.3248-0.128c12.5696 0 22.8096-10.24 22.8096-22.8096V128.7936a22.8608 22.8608 0 0 0-22.8096-22.8096z m-28.8768 69.1456h-45.9776a4.9152 4.9152 0 0 1 0-9.8304h45.9776a4.9152 4.9152 0 0 1 0 9.8304z m24.832-28.672h-70.8608a4.9152 4.9152 0 0 1 0-9.8304h70.8608a4.9152 4.9152 0 0 1 0 9.8304zM936.6016 460.928H898.816c14.6432-54.0672-10.0864-56.832-10.0864-56.832-10.4704 0-8.2944 8.2944-9.088 9.6768 0 26.4448-28.0832 47.1552-28.0832 47.1552v74.9824c0 7.3984 10.0864 10.0608 14.0544 10.0608h56.7552c5.3504 0 9.7024-14.0032 9.7024-14.0032 14.0544-47.744 14.0544-61.952 14.0544-61.952-0.0256-9.8816-9.5232-9.088-9.5232-9.088zM836.0448 460.9536h-22.6304c-4.6592 0-4.736 4.5824-4.736 4.5824l4.6848 75.6224c0 4.8128 4.8128 4.8128 4.8128 4.8128h19.584c4.0704 0 4.0448-3.1744 4.0448-3.1744V466.688c0-5.8112-5.76-5.7344-5.76-5.7344zM785.3056 837.632a22.6816 22.6816 0 0 0-20.5312 13.0304l-29.824-5.248a31.616 31.616 0 0 0-7.8848-26.9824l27.5712-27.5712a22.656 22.656 0 1 0-7.808-4.992l-26.8032 26.8032a31.744 31.744 0 1 0 12.0832 41.4208l30.5664 5.376v0.8192a22.656 22.656 0 1 0 22.6304-22.656z" fill="#008CFF" p-id="17385"></path><path d="M452.6848 940.3648c-36.864 0-73.4976-4.6848-108.8256-13.952a6.4 6.4 0 0 1-4.5568-7.808 6.272 6.272 0 0 1 7.808-4.5568c34.2784 8.9856 69.8112 13.5168 105.6 13.5168 72.8832 0 144.5888-19.1488 207.3344-55.3472a6.4 6.4 0 0 1 6.4 11.0592 428.1088 428.1088 0 0 1-213.76 57.088zM803.2 753.408a6.4 6.4 0 0 1-5.3248-9.9584 416 416 0 0 0 66.9952-178.432 6.4 6.4 0 1 1 12.6976 1.6384 429.0816 429.0816 0 0 1-69.0688 183.9616 6.4 6.4 0 0 1-5.2992 2.7904z" fill="#00CFFF" p-id="17386"></path><path d="M860.7232 410.496a6.4 6.4 0 0 1-6.1952-4.7616 416 416 0 0 0-100.7616-180.1472 6.4 6.4 0 0 1 9.2928-8.832 429.1328 429.1328 0 0 1 103.8592 185.6768 6.4 6.4 0 0 1-6.1952 8.064z" fill="#00CFFF" p-id="17387"></path><path d="M638.5408 139.4688a6.4512 6.4512 0 0 1-2.816-0.64 411.2896 411.2896 0 0 0-183.04-42.368c-32.384 0-64.64 3.7376-95.8464 11.1104a6.3232 6.3232 0 0 1-7.7056-4.7616 6.4 6.4 0 0 1 4.7616-7.7056 430.08 430.08 0 0 1 98.7904-11.4432c66.2016 0 129.6896 14.6944 188.6976 43.6736a6.4 6.4 0 0 1-2.8416 12.1344z" fill="#00CFFF" p-id="17388"></path><path d="M505.8304 687.36a6.4 6.4 0 0 1-1.8432-12.544c72.2176-21.8112 122.6496-89.7792 122.6496-165.2992a173.184 173.184 0 0 0-113.664-162.304 6.4 6.4 0 0 1 4.3776-12.0064 186.0096 186.0096 0 0 1 122.0864 174.336c0 81.1008-54.1696 154.112-131.7376 177.536a6.016 6.016 0 0 1-1.8688 0.2816z" fill="#00CFFF" p-id="17389"></path></svg>